<mxfile host="app.diagrams.net" modified="2022-04-12T07:11:30.988Z" agent="5.0 (Macintosh; Intel Mac OS X 10_15_7) AppleWebKit/537.36 (KHTML, like Gecko) Chrome/100.0.4896.75 Safari/537.36" etag="k4w-FNXbDbAwOYoX3phY" version="17.4.2" type="github">
  <diagram id="SSUtrejDLkclI3R_So_Q" name="Page-1">
    <mxGraphModel dx="823" dy="534" grid="1" gridSize="10" guides="1" tooltips="1" connect="1" arrows="1" fold="1" page="0" pageScale="1" pageWidth="850" pageHeight="1100" math="0" shadow="0">
      <root>
        <mxCell id="0" />
        <mxCell id="1" parent="0" />
        <mxCell id="MFMrkfUyuCXNLZ0RxfUw-14" value="&lt;b&gt;projectName&lt;/b&gt; - general project name (skvot / laba / r_d / elvtr)&lt;br&gt;&lt;b&gt;subProjectName&lt;/b&gt; - name of general project division (laba / laba-hu / laba-pl etc)&lt;br&gt;&lt;b&gt;themeName&lt;/b&gt; - name of actual design" style="text;html=1;strokeColor=none;fillColor=none;align=left;verticalAlign=middle;whiteSpace=wrap;rounded=0;" parent="1" vertex="1">
          <mxGeometry y="40" width="440" height="60" as="geometry" />
        </mxCell>
        <mxCell id="MFMrkfUyuCXNLZ0RxfUw-15" value="&lt;font size=&quot;1&quot;&gt;&lt;b style=&quot;font-size: 18px&quot;&gt;Landing Page&lt;/b&gt;&lt;/font&gt;" style="ellipse;whiteSpace=wrap;html=1;" parent="1" vertex="1">
          <mxGeometry x="580" y="40" width="200" height="80" as="geometry" />
        </mxCell>
        <mxCell id="MFMrkfUyuCXNLZ0RxfUw-17" value="SSR" style="edgeStyle=orthogonalEdgeStyle;rounded=0;orthogonalLoop=1;jettySize=auto;html=1;entryX=0.5;entryY=1;entryDx=0;entryDy=0;" parent="1" source="MFMrkfUyuCXNLZ0RxfUw-16" target="MFMrkfUyuCXNLZ0RxfUw-15" edge="1">
          <mxGeometry relative="1" as="geometry" />
        </mxCell>
        <mxCell id="MFMrkfUyuCXNLZ0RxfUw-16" value="&lt;font face=&quot;Courier New&quot;&gt;/templates&lt;br&gt;-/subprojects&lt;br&gt;--/subProjectName&lt;br&gt;---/landings&lt;br&gt;----/themeName&lt;br&gt;-----/index.html.twig&lt;/font&gt;" style="rounded=0;whiteSpace=wrap;html=1;align=left;spacingLeft=10;fillColor=#d5e8d4;strokeColor=#82b366;" parent="1" vertex="1">
          <mxGeometry x="580" y="160" width="200" height="120" as="geometry" />
        </mxCell>
        <mxCell id="MFMrkfUyuCXNLZ0RxfUw-19" value="extended by" style="edgeStyle=orthogonalEdgeStyle;rounded=0;orthogonalLoop=1;jettySize=auto;html=1;entryX=0.5;entryY=1;entryDx=0;entryDy=0;fontFamily=Helvetica;" parent="1" source="MFMrkfUyuCXNLZ0RxfUw-18" target="MFMrkfUyuCXNLZ0RxfUw-16" edge="1">
          <mxGeometry relative="1" as="geometry" />
        </mxCell>
        <mxCell id="MFMrkfUyuCXNLZ0RxfUw-18" value="&lt;font face=&quot;Courier New&quot;&gt;/templates&lt;br&gt;-/landings&lt;br&gt;--/themes&lt;br&gt;---/themeName.html.twig&lt;br&gt;&lt;/font&gt;" style="rounded=0;whiteSpace=wrap;html=1;align=left;spacingLeft=10;fillColor=#d5e8d4;strokeColor=#82b366;" parent="1" vertex="1">
          <mxGeometry x="580" y="320" width="200" height="80" as="geometry" />
        </mxCell>
        <mxCell id="MFMrkfUyuCXNLZ0RxfUw-21" style="edgeStyle=orthogonalEdgeStyle;rounded=0;orthogonalLoop=1;jettySize=auto;html=1;entryX=0.5;entryY=1;entryDx=0;entryDy=0;fontFamily=Helvetica;" parent="1" source="MFMrkfUyuCXNLZ0RxfUw-20" target="MFMrkfUyuCXNLZ0RxfUw-18" edge="1">
          <mxGeometry relative="1" as="geometry" />
        </mxCell>
        <mxCell id="MFMrkfUyuCXNLZ0RxfUw-22" value="extended by" style="edgeLabel;html=1;align=center;verticalAlign=middle;resizable=0;points=[];fontFamily=Helvetica;" parent="MFMrkfUyuCXNLZ0RxfUw-21" vertex="1" connectable="0">
          <mxGeometry x="-0.0724" relative="1" as="geometry">
            <mxPoint as="offset" />
          </mxGeometry>
        </mxCell>
        <mxCell id="MFMrkfUyuCXNLZ0RxfUw-20" value="&lt;font face=&quot;Courier New&quot;&gt;/templates&lt;br&gt;-/landings&lt;br&gt;--/course_base.html.twig&lt;br&gt;&lt;/font&gt;" style="rounded=0;whiteSpace=wrap;html=1;align=left;spacingLeft=10;fillColor=#d5e8d4;strokeColor=#82b366;" parent="1" vertex="1">
          <mxGeometry x="580" y="440" width="200" height="80" as="geometry" />
        </mxCell>
        <mxCell id="MFMrkfUyuCXNLZ0RxfUw-23" style="edgeStyle=orthogonalEdgeStyle;rounded=0;orthogonalLoop=1;jettySize=auto;html=1;entryX=0.5;entryY=1;entryDx=0;entryDy=0;fontFamily=Helvetica;" parent="1" source="MFMrkfUyuCXNLZ0RxfUw-25" edge="1">
          <mxGeometry relative="1" as="geometry">
            <mxPoint x="680" y="520" as="targetPoint" />
          </mxGeometry>
        </mxCell>
        <mxCell id="MFMrkfUyuCXNLZ0RxfUw-24" value="extended by" style="edgeLabel;html=1;align=center;verticalAlign=middle;resizable=0;points=[];fontFamily=Helvetica;" parent="MFMrkfUyuCXNLZ0RxfUw-23" vertex="1" connectable="0">
          <mxGeometry x="-0.0724" relative="1" as="geometry">
            <mxPoint as="offset" />
          </mxGeometry>
        </mxCell>
        <mxCell id="MFMrkfUyuCXNLZ0RxfUw-25" value="&lt;font face=&quot;Courier New&quot;&gt;/templates&lt;br&gt;-/base.html.twig&lt;br&gt;&lt;/font&gt;" style="rounded=0;whiteSpace=wrap;html=1;align=left;spacingLeft=10;fillColor=#d5e8d4;strokeColor=#82b366;" parent="1" vertex="1">
          <mxGeometry x="580" y="560" width="200" height="80" as="geometry" />
        </mxCell>
        <mxCell id="MFMrkfUyuCXNLZ0RxfUw-39" value="" style="shape=curlyBracket;whiteSpace=wrap;html=1;rounded=1;labelBorderColor=none;fontFamily=Helvetica;" parent="1" vertex="1">
          <mxGeometry x="790" y="180" width="20" height="80" as="geometry" />
        </mxCell>
        <mxCell id="MFMrkfUyuCXNLZ0RxfUw-40" value="changes for:&lt;br&gt;&lt;br&gt;specific project&lt;br&gt;specifc subProject&lt;br&gt;specific theme" style="text;html=1;strokeColor=none;fillColor=none;align=left;verticalAlign=middle;whiteSpace=wrap;rounded=0;labelBorderColor=none;fontFamily=Helvetica;" parent="1" vertex="1">
          <mxGeometry x="810" y="180" width="120" height="80" as="geometry" />
        </mxCell>
        <mxCell id="MFMrkfUyuCXNLZ0RxfUw-41" value="" style="shape=curlyBracket;whiteSpace=wrap;html=1;rounded=1;labelBorderColor=none;fontFamily=Helvetica;" parent="1" vertex="1">
          <mxGeometry x="790" y="320" width="20" height="80" as="geometry" />
        </mxCell>
        <mxCell id="MFMrkfUyuCXNLZ0RxfUw-42" value="changes for:&lt;br&gt;&lt;br&gt;specific project&lt;br&gt;all subProjects&lt;br&gt;specific theme" style="text;html=1;strokeColor=none;fillColor=none;align=left;verticalAlign=middle;whiteSpace=wrap;rounded=0;labelBorderColor=none;fontFamily=Helvetica;" parent="1" vertex="1">
          <mxGeometry x="810" y="320" width="120" height="80" as="geometry" />
        </mxCell>
        <mxCell id="MFMrkfUyuCXNLZ0RxfUw-43" value="" style="shape=curlyBracket;whiteSpace=wrap;html=1;rounded=1;labelBorderColor=none;fontFamily=Helvetica;" parent="1" vertex="1">
          <mxGeometry x="790" y="440" width="20" height="80" as="geometry" />
        </mxCell>
        <mxCell id="MFMrkfUyuCXNLZ0RxfUw-44" value="changes for:&lt;br&gt;&lt;br&gt;specific project&lt;br&gt;all subProjects&lt;br&gt;all themes" style="text;html=1;strokeColor=none;fillColor=none;align=left;verticalAlign=middle;whiteSpace=wrap;rounded=0;labelBorderColor=none;fontFamily=Helvetica;" parent="1" vertex="1">
          <mxGeometry x="810" y="440" width="120" height="80" as="geometry" />
        </mxCell>
        <mxCell id="MFMrkfUyuCXNLZ0RxfUw-54" style="edgeStyle=orthogonalEdgeStyle;rounded=0;orthogonalLoop=1;jettySize=auto;html=1;entryX=0;entryY=0.5;entryDx=0;entryDy=0;fontFamily=Helvetica;" parent="1" source="MFMrkfUyuCXNLZ0RxfUw-45" target="MFMrkfUyuCXNLZ0RxfUw-52" edge="1">
          <mxGeometry relative="1" as="geometry" />
        </mxCell>
        <mxCell id="MFMrkfUyuCXNLZ0RxfUw-45" value="/assets&lt;br&gt;-/subprojects&lt;br&gt;--/subProjectName&lt;br&gt;---/js&lt;br&gt;----/landings&lt;br&gt;-----/themeName&lt;br&gt;------/index.js" style="rounded=0;whiteSpace=wrap;html=1;labelBorderColor=none;fontFamily=Courier New;align=left;spacingLeft=10;fillColor=#fff2cc;strokeColor=#d6b656;" parent="1" vertex="1">
          <mxGeometry x="240" y="240" width="160" height="120" as="geometry" />
        </mxCell>
        <mxCell id="MFMrkfUyuCXNLZ0RxfUw-49" value="&lt;font face=&quot;Helvetica&quot;&gt;import&lt;/font&gt;" style="edgeStyle=orthogonalEdgeStyle;rounded=0;orthogonalLoop=1;jettySize=auto;html=1;entryX=0.5;entryY=1;entryDx=0;entryDy=0;fontFamily=Courier New;" parent="1" source="MFMrkfUyuCXNLZ0RxfUw-46" target="MFMrkfUyuCXNLZ0RxfUw-45" edge="1">
          <mxGeometry relative="1" as="geometry" />
        </mxCell>
        <mxCell id="MFMrkfUyuCXNLZ0RxfUw-46" value="/assets&lt;br&gt;-/core&lt;br&gt;--/js&lt;br&gt;---/landings&lt;br&gt;----/themeName&lt;br&gt;-----/index.js" style="rounded=0;whiteSpace=wrap;html=1;labelBorderColor=none;fontFamily=Courier New;align=left;spacingLeft=10;fillColor=#fff2cc;strokeColor=#d6b656;" parent="1" vertex="1">
          <mxGeometry x="240" y="400" width="160" height="120" as="geometry" />
        </mxCell>
        <mxCell id="MFMrkfUyuCXNLZ0RxfUw-48" style="edgeStyle=orthogonalEdgeStyle;rounded=0;orthogonalLoop=1;jettySize=auto;html=1;entryX=0.5;entryY=1;entryDx=0;entryDy=0;fontFamily=Courier New;" parent="1" source="MFMrkfUyuCXNLZ0RxfUw-47" target="MFMrkfUyuCXNLZ0RxfUw-46" edge="1">
          <mxGeometry relative="1" as="geometry" />
        </mxCell>
        <mxCell id="MFMrkfUyuCXNLZ0RxfUw-50" value="import" style="edgeLabel;html=1;align=center;verticalAlign=middle;resizable=0;points=[];fontFamily=Helvetica;" parent="MFMrkfUyuCXNLZ0RxfUw-48" vertex="1" connectable="0">
          <mxGeometry x="-0.0705" relative="1" as="geometry">
            <mxPoint as="offset" />
          </mxGeometry>
        </mxCell>
        <mxCell id="MFMrkfUyuCXNLZ0RxfUw-47" value="/node_modules&lt;br&gt;-/lsd-landings&lt;br&gt;--/entries&lt;br&gt;---/themeName.js" style="rounded=0;whiteSpace=wrap;html=1;labelBorderColor=none;fontFamily=Courier New;align=left;spacingLeft=10;fillColor=#fff2cc;strokeColor=#d6b656;" parent="1" vertex="1">
          <mxGeometry x="240" y="560" width="160" height="80" as="geometry" />
        </mxCell>
        <mxCell id="MFMrkfUyuCXNLZ0RxfUw-53" style="edgeStyle=orthogonalEdgeStyle;rounded=0;orthogonalLoop=1;jettySize=auto;html=1;entryX=0;entryY=0.5;entryDx=0;entryDy=0;fontFamily=Helvetica;" parent="1" source="MFMrkfUyuCXNLZ0RxfUw-52" target="MFMrkfUyuCXNLZ0RxfUw-16" edge="1">
          <mxGeometry relative="1" as="geometry" />
        </mxCell>
        <mxCell id="MFMrkfUyuCXNLZ0RxfUw-52" value="&lt;b&gt;&lt;font style=&quot;font-size: 14px&quot;&gt;WEBPACK&lt;/font&gt;&lt;/b&gt;&lt;br&gt;addEntry" style="shape=hexagon;perimeter=hexagonPerimeter2;whiteSpace=wrap;html=1;fixedSize=1;labelBorderColor=none;fontFamily=Helvetica;fillColor=#dae8fc;strokeColor=#6c8ebf;" parent="1" vertex="1">
          <mxGeometry x="380" y="120" width="120" height="80" as="geometry" />
        </mxCell>
        <mxCell id="MFMrkfUyuCXNLZ0RxfUw-55" value="" style="shape=curlyBracket;whiteSpace=wrap;html=1;rounded=1;labelBorderColor=none;fontFamily=Helvetica;" parent="1" vertex="1">
          <mxGeometry x="410" y="260" width="20" height="80" as="geometry" />
        </mxCell>
        <mxCell id="MFMrkfUyuCXNLZ0RxfUw-56" value="changes for:&lt;br&gt;&lt;br&gt;specific project&lt;br&gt;specifc subProject&lt;br&gt;specific theme" style="text;html=1;strokeColor=none;fillColor=none;align=left;verticalAlign=middle;whiteSpace=wrap;rounded=0;labelBorderColor=none;fontFamily=Helvetica;" parent="1" vertex="1">
          <mxGeometry x="430" y="260" width="110" height="80" as="geometry" />
        </mxCell>
        <mxCell id="MFMrkfUyuCXNLZ0RxfUw-57" value="" style="shape=curlyBracket;whiteSpace=wrap;html=1;rounded=1;labelBorderColor=none;fontFamily=Helvetica;" parent="1" vertex="1">
          <mxGeometry x="410" y="420" width="20" height="80" as="geometry" />
        </mxCell>
        <mxCell id="MFMrkfUyuCXNLZ0RxfUw-58" value="changes for:&lt;br&gt;&lt;br&gt;specific project&lt;br&gt;all subProjects&lt;br&gt;specific theme" style="text;html=1;strokeColor=none;fillColor=none;align=left;verticalAlign=middle;whiteSpace=wrap;rounded=0;labelBorderColor=none;fontFamily=Helvetica;" parent="1" vertex="1">
          <mxGeometry x="430" y="420" width="110" height="80" as="geometry" />
        </mxCell>
        <mxCell id="MFMrkfUyuCXNLZ0RxfUw-59" value="" style="shape=curlyBracket;whiteSpace=wrap;html=1;rounded=1;labelBorderColor=none;fontFamily=Helvetica;" parent="1" vertex="1">
          <mxGeometry x="410" y="560" width="20" height="80" as="geometry" />
        </mxCell>
        <mxCell id="MFMrkfUyuCXNLZ0RxfUw-60" value="changes for:&lt;br&gt;&lt;br&gt;all projects&lt;br&gt;all subProjects&lt;br&gt;specific theme" style="text;html=1;strokeColor=none;fillColor=none;align=left;verticalAlign=middle;whiteSpace=wrap;rounded=0;labelBorderColor=none;fontFamily=Helvetica;" parent="1" vertex="1">
          <mxGeometry x="430" y="560" width="110" height="80" as="geometry" />
        </mxCell>
        <mxCell id="MFMrkfUyuCXNLZ0RxfUw-64" style="edgeStyle=orthogonalEdgeStyle;rounded=0;orthogonalLoop=1;jettySize=auto;html=1;entryX=0;entryY=0.5;entryDx=0;entryDy=0;fontFamily=Helvetica;" parent="1" source="MFMrkfUyuCXNLZ0RxfUw-61" target="MFMrkfUyuCXNLZ0RxfUw-46" edge="1">
          <mxGeometry relative="1" as="geometry" />
        </mxCell>
        <mxCell id="MFMrkfUyuCXNLZ0RxfUw-61" value="/assets&lt;br&gt;-/core&lt;br&gt;--/scss&lt;br&gt;---/landings&lt;br&gt;----/themeName&lt;br&gt;-----/themeName.scss" style="rounded=0;whiteSpace=wrap;html=1;labelBorderColor=none;fontFamily=Courier New;align=left;spacingLeft=10;fillColor=#f8cecc;strokeColor=#b85450;" parent="1" vertex="1">
          <mxGeometry y="400" width="180" height="120" as="geometry" />
        </mxCell>
        <mxCell id="MFMrkfUyuCXNLZ0RxfUw-63" style="edgeStyle=orthogonalEdgeStyle;rounded=0;orthogonalLoop=1;jettySize=auto;html=1;entryX=0;entryY=0.5;entryDx=0;entryDy=0;fontFamily=Helvetica;" parent="1" source="MFMrkfUyuCXNLZ0RxfUw-62" target="MFMrkfUyuCXNLZ0RxfUw-45" edge="1">
          <mxGeometry relative="1" as="geometry" />
        </mxCell>
        <mxCell id="MFMrkfUyuCXNLZ0RxfUw-62" value="/assets&lt;br&gt;-/subprojects&lt;br&gt;--/subProjectName&lt;br&gt;---/scss&lt;br&gt;----/landings&lt;br&gt;-----/themeName&lt;br&gt;------/themeName.scss" style="rounded=0;whiteSpace=wrap;html=1;labelBorderColor=none;fontFamily=Courier New;align=left;spacingLeft=10;fillColor=#f8cecc;strokeColor=#b85450;" parent="1" vertex="1">
          <mxGeometry y="240" width="180" height="120" as="geometry" />
        </mxCell>
        <mxCell id="UgugikMDsqummfx9fVY2-21" value="optional customization" style="text;html=1;strokeColor=none;fillColor=none;align=left;verticalAlign=middle;whiteSpace=wrap;rounded=0;" vertex="1" parent="1">
          <mxGeometry y="220" width="180" height="20" as="geometry" />
        </mxCell>
        <mxCell id="UgugikMDsqummfx9fVY2-22" value="optional customization" style="text;html=1;strokeColor=none;fillColor=none;align=left;verticalAlign=middle;whiteSpace=wrap;rounded=0;" vertex="1" parent="1">
          <mxGeometry y="380" width="180" height="20" as="geometry" />
        </mxCell>
      </root>
    </mxGraphModel>
  </diagram>
</mxfile>
